# xmcd CD database file
# Copyright (C) 1996 Ti Kan
#
# Track frame offsets:
#  182
#  27020
#  49167
#  68942
#  89535
#  103522
#  132370
#  147517
#  172860
#  190870
#  209955
#  235300
#  253182
#  273312
#
# Disc length: 3843 seconds
#
# Revision: 1
# Processed by: cddbd v1.4b41PL1 Copyright (c) Steve Scherf et al.
# Submitted via: CDWizzard Release:4.12
#
DISCID=d40f010e
DTITLE=McDowell, Mississippi Fred - Live At The Mayfair Hotel
DYEAR=1900
DGENRE=
TTITLE0=61 Highway
TTITLE1=Red Cross Store Blues
TTITLE2=When I Lay My Burden Down
TTITLE3=Evil Hearted Woman
TTITLE4=I Asked For Whiskey, She Gave Me Gasoline
TTITLE5=Standing At The Burying Ground
TTITLE6=Glory Hallelujah
TTITLE7=Write Me A Few Of Your Lines
TTITLE8=My Baby Done Me Wrong
TTITLE9=Shake 'Em On Down
TTITLE10=Louise
TTITLE11=My Babe
TTITLE12=Waves Of The Water
TTITLE13=Kokomo Blues
EXTD=
EXTT0=
EXTT1=
EXTT2=
EXTT3=
EXTT4=
EXTT5=
EXTT6=
EXTT7=
EXTT8=
EXTT9=
EXTT10=
EXTT11=
EXTT12=
EXTT13=
PLAYORDER=
